<svg xmlns="http://www.w3.org/2000/svg" viewBox="0 0 50 50"><defs><style>.cls-1{fill:#fff;}.cls-2{fill:#5c8884;}</style></defs><title>Asset 1</title><g id="Layer_2" data-name="Layer 2"><g id="Layer_1-2" data-name="Layer 1"><path class="cls-1" d="M25,50A25,25,0,1,0,0,25,25,25,0,0,0,25,50Z"/><path class="cls-2" d="M29.26,32.17h0c-.66-.79-1.34-1.59-2-2.42A3.85,3.85,0,0,1,28,28.14l.06-.07a1.26,1.26,0,0,0,.41-.89.82.82,0,0,0-.33-.62,1,1,0,0,0-.82-.17,2.41,2.41,0,0,0-.59.26l-.26.13s-.09,0-.21-.07l-.11-.09a1.53,1.53,0,0,0-.55-.39V17.15A8.7,8.7,0,0,0,27.9,11.4a6.69,6.69,0,0,0-2.55-4.86.59.59,0,0,0-.75,0,7.28,7.28,0,0,0-2.49,4.75A7.8,7.8,0,0,0,24.42,17v9.21a1.53,1.53,0,0,0-.55.39l-.1.09c-.13.1-.17.08-.21.07a2.1,2.1,0,0,1-.26-.13,2.24,2.24,0,0,0-.6-.25,1,1,0,0,0-.81.16.79.79,0,0,0-.33.62,1.26,1.26,0,0,0,.41.89l.06.08a4.11,4.11,0,0,1,.67,1.6c-.62.83-1.3,1.64-2,2.42l-.38.45c-1.46,1.74-2.8,3.71-2.61,6.25C18,41.93,21,43.44,24,43.59q1,0,2,0c2.95-.15,6-1.66,6.24-4.72.19-2.54-1.15-4.5-2.61-6.25ZM24.42,12.5v2.64a6,6,0,0,1-1.15-3.77h0A6,6,0,0,1,25,7.77a5.41,5.41,0,0,1,1.77,3.66,6.75,6.75,0,0,1-1.16,3.78V12.5a.58.58,0,1,0-1.16,0Zm.07,15.12h0l.19-.17.1-.1a1.09,1.09,0,0,0,.44,0l.1.1.2.17a1.32,1.32,0,0,0,1.23.28,6.41,6.41,0,0,0-.54,1.46H23.8a6.44,6.44,0,0,0-.55-1.46A1.33,1.33,0,0,0,24.49,27.62Zm1.45,14.8c-.63,0-1.26,0-1.9,0-2.43-.12-5-1.29-5.13-3.64-.16-2.12,1-3.86,2.35-5.42l.37-.44c.65-.77,1.32-1.57,1.93-2.39h2.88c.62.82,1.28,1.62,1.93,2.39l.38.44c1.31,1.56,2.5,3.29,2.34,5.42C30.92,41.13,28.39,42.3,25.94,42.42Z"/><path class="cls-2" d="M18.68,18.72h0a5.48,5.48,0,0,0,2.83.75,6.41,6.41,0,0,0,1.31-.14.59.59,0,0,0,.43-.65,5,5,0,0,0-2-3.5,6.44,6.44,0,0,0-4.52-.85.59.59,0,0,0-.38.25.63.63,0,0,0-.08.45A5.48,5.48,0,0,0,18.68,18.72Zm1.92-2.58h0a3.26,3.26,0,0,1,1,1.25l-1-.67a.58.58,0,0,0-.64,1l.87.58a3.89,3.89,0,0,1-1.59-.53,4.06,4.06,0,0,1-1.69-2.33A5,5,0,0,1,20.6,16.14Z"/><path class="cls-2" d="M18.68,24.54h0a5.85,5.85,0,0,0,4.14.61.58.58,0,0,0,.43-.65,5,5,0,0,0-2-3.49,6.47,6.47,0,0,0-4.52-.86.64.64,0,0,0-.38.26.62.62,0,0,0-.08.44A5.47,5.47,0,0,0,18.68,24.54ZM20.6,22h0a3.26,3.26,0,0,1,1,1.25l-1-.67a.57.57,0,0,0-.8.16.58.58,0,0,0,.16.81l.87.58a3.91,3.91,0,0,1-1.59-.54,4,4,0,0,1-1.69-2.32A4.84,4.84,0,0,1,20.6,22Z"/><path class="cls-2" d="M27.18,19.34h0a5.84,5.84,0,0,0,1.31.14,5.48,5.48,0,0,0,2.83-.75A5.5,5.5,0,0,0,33.71,15a.64.64,0,0,0-.08-.45.59.59,0,0,0-.38-.25,6.44,6.44,0,0,0-4.52.85,5,5,0,0,0-2,3.5A.58.58,0,0,0,27.18,19.34Zm2.22-3.19h0a4.82,4.82,0,0,1,3-.73,4.08,4.08,0,0,1-1.68,2.31,3.91,3.91,0,0,1-1.59.54l.86-.58a.58.58,0,1,0-.64-1l-1,.67A3.31,3.31,0,0,1,29.4,16.15Z"/><path class="cls-2" d="M33.25,20.16h0a6.44,6.44,0,0,0-4.52.85,5,5,0,0,0-2,3.49.6.6,0,0,0,.43.66,5.77,5.77,0,0,0,1.31.13,5.29,5.29,0,0,0,2.83-.75,5.47,5.47,0,0,0,2.39-3.69.62.62,0,0,0-.08-.44A.59.59,0,0,0,33.25,20.16Zm-2.53,3.39h0a4.06,4.06,0,0,1-1.59.54l.86-.58a.59.59,0,0,0,.17-.81.58.58,0,0,0-.81-.16l-1,.67a3.26,3.26,0,0,1,1-1.25,4.89,4.89,0,0,1,3-.73A4.1,4.1,0,0,1,30.72,23.55Z"/></g></g></svg>