<?xml version="1.0" encoding="utf-8"?>
<!-- Generator: Adobe Illustrator 22.1.0, SVG Export Plug-In . SVG Version: 6.00 Build 0)  -->
<svg version="1.1" id="Layer_1" xmlns="http://www.w3.org/2000/svg" xmlns:xlink="http://www.w3.org/1999/xlink" x="0px" y="0px"
	 viewBox="0 0 50 50" style="enable-background:new 0 0 50 50;" xml:space="preserve">
<style type="text/css">
	.st0{fill:#FFFFFF;}
	.st1{fill:#5B8783;}
</style>
<path class="st0" d="M25,50c13.8,0,25-11.2,25-25S38.8,0,25,0S0,11.2,0,25S11.2,50,25,50z"/>
<path class="st1" d="M38,7.5H12c-0.3,0-0.5,0.2-0.5,0.5v34c0,0.3,0.2,0.5,0.5,0.5h26c0.3,0,0.5-0.2,0.5-0.5V8
	C38.5,7.7,38.3,7.5,38,7.5L38,7.5z M37.5,41.5H12.5V8.5h25.1V41.5L37.5,41.5z"/>
<path class="st1" d="M14.3,39.8h13.3c0.6,0,1.1-0.2,1.5-0.6c0,0,0,0,0.1,0l0,0c0,0,0,0,0.1-0.1l6.3-6.7c0.1-0.1,0.2-0.2,0.3-0.3l0,0
	c0,0,0,0,0,0c0.3-0.4,0.4-0.8,0.4-1.4V12.2c0-0.3-0.2-0.5-0.5-0.5h-1.9v-1.1c0-0.3-0.2-0.5-0.5-0.5h-1.9v0c0-0.5-0.4-0.9-0.9-0.9
	H19.7c-0.5,0-0.9,0.4-0.9,0.9v0h-2.2c-0.3,0-0.5,0.2-0.5,0.5v1.1h-1.9c-0.3,0-0.5,0.2-0.5,0.5v27.1C13.8,39.6,14,39.8,14.3,39.8z
	 M29.9,32.9h3.9L29.9,37L29.9,32.9L29.9,32.9z M19.7,10.1l11.1,0v1c0,0,0,0,0,0l-11.1,0L19.7,10.1L19.7,10.1z M17.1,11.1h1.7v0
	c0,0.5,0.4,0.9,0.9,0.9h11.1c0.5,0,0.9-0.4,0.9-0.9v0h1.4v2.3l-5.3,0c0,0,0,0,0,0c-0.2,0-0.4,0.1-0.4,0.3c0,0,0,0,0,0
	c0,0,0,0.1,0,0.1c0,0,0,0.1,0,0.1v0.7c0,0.1-0.1,0.1-0.1,0.1h-3.9c-0.1,0-0.1-0.1-0.1-0.1v-0.6c0-0.3-0.2-0.5-0.5-0.5h-5.6
	L17.1,11.1L17.1,11.1z M14.7,12.7h1.4v1.1c0,0.3,0.2,0.5,0.5,0.5h5.6v0.2c0,0.6,0.5,1.1,1.1,1.1h3.9c0.6,0,1.1-0.5,1.1-1.1v-0.2
	l5.3,0c0.1,0,0.2,0,0.3-0.1c0.1-0.1,0.1-0.2,0.1-0.3v-1.1h1.4v17.9c0,0.3-0.1,0.7-0.3,0.9L35,31.6c-0.2,0.2-0.6,0.4-0.9,0.4h-4.6
	c-0.1,0-0.2,0-0.3,0.1C29,32.2,29,32.3,29,32.5l0,5c0,0.4-0.2,0.7-0.4,1l0,0c-0.3,0.2-0.6,0.4-1,0.4H14.7V12.7L14.7,12.7z"/>
<path class="st1" d="M27.8,37.3c0-0.3-0.2-0.5-0.5-0.4c-0.1,0-0.2,0-0.3,0c-0.2,0-0.4,0-0.5,0c-0.6-1.2-1-2.8-1-4.1
	c0-1.4,0.4-2.4,0.9-3.4c0.6,0.1,1.3,0.2,2.2,0.2c0.2,0,0.4,0,0.6,0c0,0,0,0,0,0c0,0,0.1,0,0.1,0c0,0,0.1,0,0.1,0c0,0,0,0,0,0
	c0,0,0,0,0,0c0,0,0,0,0.1-0.1c0,0,0,0,0-0.1c0,0,0-0.1,0-0.1c0,0,0-0.1,0-0.1c0,0,0,0,0-0.1c0,0,0,0,0,0c0,0,0-0.1,0-0.1
	c0,0,0-0.1,0-0.1c0,0,0,0,0,0c-0.2-0.3-0.6-0.9-1-1.3l0.2,0c0.2,0,0.3-0.1,0.4-0.2c0.1-0.1,0.1-0.3,0-0.5l-0.8-1.3c0,0,0.1,0,0.1,0
	c0.1,0,0.3-0.1,0.3-0.3c0-0.1,0-0.3-0.1-0.4c-0.3-0.4-0.9-1.2-1.2-1.7l0,0c0.1-0.1,0.2-0.2,0.2-0.3c0-0.1,0-0.3-0.1-0.4
	c-0.6-0.8-0.8-1.2-1-1.4l0,0c0.2-0.1,0.3-0.3,0.3-0.5c-0.1-0.5-2-3.7-2.2-3.9c-0.1-0.1-0.2-0.2-0.4-0.1c-0.1,0-0.3,0.1-0.3,0.2
	c0,0-2,3.3-2.1,3.8c-0.1,0.2,0.1,0.5,0.3,0.5l0,0c-0.2,0.2-0.4,0.6-1,1.4c-0.1,0.1-0.1,0.2-0.1,0.4c0,0.1,0.1,0.2,0.2,0.3l0,0
	c-0.3,0.5-0.9,1.3-1.2,1.7c-0.1,0.1-0.1,0.3-0.1,0.4c0,0.1,0.2,0.3,0.3,0.3c0,0,0.1,0,0.1,0l-0.8,1.3c-0.1,0.1-0.1,0.3,0,0.5
	c0.1,0.1,0.2,0.2,0.4,0.2l0.2,0c-0.4,0.5-0.8,1.1-1,1.3c-0.1,0.2-0.1,0.4,0.1,0.6c0.1,0.1,0.2,0.2,0.3,0.2h0c0.2,0,1.1,0,2-0.3
	c0.5,1.1,0.7,2.3,0.7,3.5c0,1.3-0.4,2.9-0.9,4c-0.3,0-0.5-0.1-0.6-0.1c-0.2-0.1-0.5,0.1-0.6,0.3c-0.1,0.2,0.1,0.5,0.3,0.6
	c0.3,0.1,0.6,0.2,1.2,0.2c0.7,0,1.1-0.1,1.4-0.3c0.3-0.1,0.6-0.2,1.1-0.2c0.6,0,0.8,0.1,1.1,0.2c0.3,0.1,0.7,0.3,1.4,0.3
	c0.1,0,0.2,0,0.3,0C27.6,37.7,27.8,37.5,27.8,37.3L27.8,37.3z M21.7,25c-0.1-0.1-0.2-0.2-0.3-0.3c0,0,0,0,0,0
	c0.5-0.7,1.1-1.6,1.1-1.6c0.1-0.1,0.1-0.2,0.1-0.4c0-0.1-0.1-0.2-0.2-0.3l0,0c0.7-0.9,0.7-1,1-1.4c0.1-0.1,0.1-0.3,0.1-0.4
	c0-0.1-0.1-0.3-0.3-0.3l-0.1-0.1c0.3-0.6,1-1.8,1.5-2.5c0.4,0.7,1.1,1.9,1.4,2.5l-0.1,0.1c-0.1,0.1-0.2,0.2-0.3,0.3
	c0,0.1,0,0.3,0.1,0.4c0.3,0.4,0.4,0.4,1,1.4l0,0c-0.1,0.1-0.2,0.2-0.2,0.3c0,0.1,0,0.3,0.1,0.4c0,0,0.6,0.9,1.1,1.6c0,0,0,0,0,0
	c-0.1,0-0.3,0.1-0.3,0.3c-0.1,0.1,0,0.3,0,0.4l0.8,1.2l-0.3,0c-0.2,0-0.3,0.1-0.4,0.3c-0.1,0.2-0.1,0.3,0,0.5c0,0,0.5,0.7,0.9,1.3
	c-1.8-0.1-3-0.6-3.5-0.9c0-0.1,0-0.2-0.1-0.3c-0.2-0.2-0.4-0.2-0.6-0.1c-1.1,0.8-2.4,1.2-3.3,1.3c0.4-0.6,0.9-1.2,0.9-1.2
	c0.1-0.1,0.1-0.3,0-0.5c-0.1-0.2-0.2-0.3-0.4-0.3l-0.3,0l0.8-1.2C21.8,25.2,21.8,25.1,21.7,25L21.7,25z M23.9,28.3
	c0.1,0.1,0.2,0.1,0.4,0.2L24,29.2l-0.3-0.7C23.8,28.4,23.9,28.4,23.9,28.3L23.9,28.3z M23,36.6c-0.1,0-0.2,0.1-0.4,0.1
	c0.5-1.2,0.8-2.7,0.8-4c0-1.3-0.3-2.6-0.8-3.8c0.1,0,0.2-0.1,0.2-0.1l0.7,1.6c0.1,0.2,0.2,0.3,0.4,0.3h0c0.2,0,0.3-0.1,0.4-0.3
	l0.7-1.5c0.1,0,0.2,0.1,0.3,0.1c-0.5,1-0.9,2.1-0.9,3.6c0,1.2,0.3,2.6,0.8,3.8c-0.2-0.1-0.5-0.1-0.9-0.1
	C23.7,36.4,23.3,36.5,23,36.6L23,36.6z"/>
</svg>
