<?xml version="1.0" encoding="utf-8"?>
<!-- Generator: Adobe Illustrator 22.1.0, SVG Export Plug-In . SVG Version: 6.00 Build 0)  -->
<svg version="1.1" id="Layer_1" xmlns="http://www.w3.org/2000/svg" xmlns:xlink="http://www.w3.org/1999/xlink" x="0px" y="0px"
	 viewBox="0 0 50.2 50.2" style="enable-background:new 0 0 50.2 50.2;" xml:space="preserve">
<style type="text/css">
	.st0{fill:#FFFFFF;}
	.st1{fill:#5B8783;stroke:#5B8783;stroke-width:0.5;stroke-miterlimit:10;}
</style>
<path class="st0" d="M25,50c13.8,0,25-11.2,25-25S38.8,0,25,0S0,11.2,0,25S11.2,50,25,50z"/>
<path class="st1" d="M41.8,19.1L41.8,19.1C41.8,19.1,41.8,19.1,41.8,19.1c0-0.1,0-0.1,0-0.2c0,0,0,0,0,0c0,0,0,0-0.1-0.1l0,0
	c0,0,0,0-0.1,0c-4.4-1.3-9.1,0.9-10.9,3.8c-1.4,2.4-1.2,5.2-0.9,6.3l-4.4,4V22.1c1.1-0.6,3.2-2.2,4-4.7c1.1-3.2-0.4-8.3-4.2-10.7h0
	c0,0,0,0,0,0c0,0,0-0.1-0.1-0.1H25c0,0-0.1,0-0.1,0c0,0-0.1,0-0.1,0c0,0,0,0-0.1,0h0c-3.8,2.4-5.4,7.4-4.4,10.6
	c0.9,2.7,3.2,4.4,4.2,4.9v10.6l-4.4-4c0.3-1.1,0.5-3.9-0.9-6.3c-1.7-2.9-6.5-5.2-10.8-3.9c0,0-0.1,0-0.1,0h0c0,0-0.1,0.1-0.1,0.1
	l0,0c0,0,0,0.1,0,0.1c0,0,0,0,0,0v0c-0.8,4.5,2,8.9,5.1,10.3c1,0.4,2.1,0.7,3.2,0.6c1,0,2.1-0.2,3.1-0.5l5,4.5v9
	c0,0.2,0.2,0.4,0.4,0.4c0.2,0,0.4-0.2,0.4-0.4v-9l5-4.5c1,0.3,2,0.5,3.1,0.5c1.1,0,2.2-0.2,3.2-0.6C39.8,28,42.6,23.6,41.8,19.1
	L41.8,19.1z M13.7,28.6c-2.8-1.2-5.2-5.1-4.6-9.1c3.9-1,8.1,0.9,9.6,3.5c1.1,1.9,1,4,0.9,5.2l-4.2-3.8c-0.2-0.2-0.5-0.1-0.6,0
	c-0.2,0.2-0.1,0.5,0,0.6l4.2,3.8C17.8,29.2,15.6,29.5,13.7,28.6L13.7,28.6z M21.2,17c-0.9-2.9,0.4-7.3,3.8-9.5
	c3.3,2.2,4.6,6.7,3.6,9.5c-0.7,2-2.2,3.3-3.2,4v-5.6c0-0.2-0.2-0.4-0.4-0.4s-0.4,0.2-0.4,0.4v5.8C23.7,20.7,21.9,19.3,21.2,17
	L21.2,17z M36.4,28.6c-2,0.9-4.1,0.6-5.3,0.3l4.2-3.8c0.2-0.2,0.2-0.4,0-0.6c-0.2-0.2-0.4-0.2-0.6,0l-4.2,3.8
	c-0.3-1.8,0-3.6,0.9-5.2c1.5-2.6,5.7-4.6,9.6-3.5C41.6,23.5,39.1,27.4,36.4,28.6L36.4,28.6z"/>
</svg>
