<svg id="Layer_1" data-name="Layer 1" xmlns="http://www.w3.org/2000/svg" viewBox="0 0 50 50"><defs><style>.cls-1{fill:#fff;}.cls-2{fill:#5b8783;}</style></defs><title>Artboard 1</title><path class="cls-1" d="M25,50A25,25,0,1,0,0,25,25,25,0,0,0,25,50Z"/><path class="cls-2" d="M40.66,15.18,34.82,9.34a1,1,0,0,0-.74-.3H16.29a1.08,1.08,0,0,0-1.07,1.08V28.84h-5a1.08,1.08,0,0,0-1.07,1.08c.28,3.6-1.56,10.92,4.13,11H36.83A4.12,4.12,0,0,0,41,36.83V16a1.06,1.06,0,0,0-.3-.77ZM15.25,36.8a2,2,0,0,1-4,0V31h4V36.8ZM34.12,11.66l4.22,4.23H34.12ZM38.85,36.8a2,2,0,0,1-2,2h-20c1.08-.06.26-26.68.51-27.62H32c.1,8.26-1.4,6.73,6.85,6.84V36.8Z"/><path class="cls-2" d="M34.65,28.81H21.56a1.08,1.08,0,0,0-1.07,1.07A1.06,1.06,0,0,0,21.56,31H34.69A1.08,1.08,0,0,0,34.65,28.81Z"/><path class="cls-2" d="M34.65,24.11H21.56a1.08,1.08,0,0,0,0,2.15H34.69A1.08,1.08,0,0,0,34.65,24.11Z"/><path class="cls-2" d="M34.65,33.54H21.56a1.08,1.08,0,0,0,0,2.15H34.69A1.08,1.08,0,0,0,34.65,33.54Z"/><path class="cls-2" d="M21.56,21.53h6.55a1.08,1.08,0,0,0,1.07-1.08V15.38a1.08,1.08,0,0,0-1.07-1.07H21.56a1.08,1.08,0,0,0-1.07,1.07v5.07a1.09,1.09,0,0,0,1.07,1.08Zm1-5.11H27v3H22.6Z"/></svg>